<mxfile host="65bd71144e">
    <diagram id="DLWpFBDC3uFoLsrsLyuW" name="Page-1">
        <mxGraphModel dx="850" dy="265" grid="1" gridSize="10" guides="1" tooltips="1" connect="1" arrows="1" fold="1" page="1" pageScale="1" pageWidth="850" pageHeight="1100" math="0" shadow="0">
            <root>
                <mxCell id="0"/>
                <mxCell id="1" parent="0"/>
            </root>
        </mxGraphModel>
    </diagram>
    <diagram id="OjPHMpD9wYnPPQbzxnmD" name="Page-2">
        <mxGraphModel dx="501" dy="265" grid="1" gridSize="10" guides="1" tooltips="1" connect="1" arrows="1" fold="1" page="1" pageScale="1" pageWidth="850" pageHeight="1100" math="0" shadow="0">
            <root>
                <mxCell id="0"/>
                <mxCell id="1" parent="0"/>
            </root>
        </mxGraphModel>
    </diagram>
</mxfile>